<?xml version="1.0" encoding="utf-8"?>
<!-- Generator: Adobe Illustrator 16.0.3, SVG Export Plug-In . SVG Version: 6.00 Build 0)  -->
<svg version="1.2" baseProfile="tiny" id="Layer_1" xmlns="http://www.w3.org/2000/svg" xmlns:xlink="http://www.w3.org/1999/xlink"
	 x="0px" y="0px" width="2351.045px" height="274.801px" viewBox="0 0 2351.045 274.801" xml:space="preserve">
<g>
	<path fill-rule="evenodd" fill="#FFFFFF" d="M0.955,8.52c0.949-0.093,1.898-0.265,2.848-0.267
		c7.759-0.022,15.519,0.033,23.277-0.048c1.698-0.019,2.743,0.535,3.764,1.902c32.417,43.469,64.879,86.904,97.335,130.343
		c0.476,0.637,0.975,1.254,1.655,2.127c0.68-0.943,1.272-1.742,1.841-2.559c29.846-42.852,59.685-85.71,89.545-128.552
		c2.737-3.928,1.349-3.188,6.121-3.214c8.239-0.046,16.479-0.013,24.719-0.013c0.865,0,1.731,0,2.536,0
		c0.518,1.989,0.608,203.767,0.126,206.341c-10.267,0-20.562,0-31.184,0c-0.034-0.996-0.099-1.998-0.099-3
		c-0.006-20.078-0.005-40.156-0.005-60.235c0-22.479,0.06-44.957-0.023-67.435c-0.045-12.331,0.646-24.621,1.52-36.909
		c0.011-0.155-0.032-0.313-0.089-0.819c-0.423,0.586-0.769,0.936-0.964,1.354c-4.267,9.162-9.582,17.681-15.321,25.997
		c-24.346,35.278-48.55,70.655-72.809,105.994c-0.63,0.919-1.287,1.818-1.956,2.763c-2.224,0-4.385-0.091-6.534,0.029
		c-1.592,0.089-2.6-0.421-3.56-1.754c-5.472-7.591-11.054-15.102-16.595-22.642c-21.074-28.68-42.157-57.353-63.205-86.051
		c-2.694-3.674-5.397-7.368-7.737-11.269c-2.087-3.478-3.687-7.25-5.479-10.903c-0.382-0.778-0.667-1.605-1.314-2.37
		c0.149,1.74,0.357,3.478,0.44,5.221c0.298,6.31,0.78,12.621,0.79,18.933c0.072,46.956,0.049,93.912,0.055,140.869
		c0,0.635,0,1.27,0,2.041c-0.619,0.121-1.138,0.311-1.656,0.311c-8.72,0.02-17.438,0.021-26.158,0.004
		c-0.628-0.002-1.256-0.176-1.884-0.271C0.955,145.8,0.955,77.16,0.955,8.52z"/>
	<path fill-rule="evenodd" fill="#FFFFFF" d="M2352,217.801c-61.033,0.004-122.066,0.008-183.099,0.012c-4.8,0-9.599,0-14.398,0
		c-0.787,0-1.573,0-2.525,0c0-68.83,0-137.484,0-206.268c66.188,0,132.29,0,198.518,0c0,9.133,0,18.141,0,27.508
		c-6.809,0.027-13.575,0.009-20.342,0.013c-6.879,0.003-13.758,0-20.638,0c-6.799,0-13.599,0-20.397,0c-6.879,0-13.759,0-20.638,0
		c-6.799,0-13.599,0-20.397,0c-6.8,0-13.599,0-20.398,0c-6.879,0-13.758,0-20.637,0c-6.793,0-13.587,0-20.334,0
		c-0.558,1.821-0.676,54.761-0.126,57.54c33.201,0,66.45,0,99.632,0c0.554,1.956,0.741,21.75,0.316,26.733
		c-0.053,0.06-0.102,0.125-0.161,0.177c-0.058,0.05-0.122,0.104-0.192,0.122c-0.153,0.04-0.312,0.072-0.471,0.083
		c-0.238,0.018-0.479,0.019-0.719,0.019c-32.636,0.011-65.271,0.021-97.908,0.032c-0.079,0-0.161,0.009-0.236,0.031
		c-0.073,0.022-0.139,0.068-0.207,0.104c-0.473,1.718-0.611,62.323-0.126,65.469c0.666,0.038,1.364,0.114,2.063,0.114
		c54.473,0.001,108.947-0.004,163.421-0.009C2352,198.92,2352,208.361,2352,217.801z"/>
	<path fill-rule="evenodd" fill="#FFFFFF" d="M1693.919,274.92c-0.248-0.18-0.472-0.445-0.748-0.523
		c-2.724-0.771-3.712-2.826-3.996-5.383c-0.123-1.109-0.205-2.23-0.205-3.348c0.002-8.869-0.002-17.736,0.074-26.605
		c0.013-1.418,0.32-2.855,0.666-4.24c0.414-1.666,1.497-2.824,3.232-3.184c1.56-0.322,3.137-0.768,4.709-0.781
		c8.87-0.076,17.741-0.076,26.61-0.006c1.574,0.014,3.154,0.434,4.714,0.758c1.822,0.377,3.004,1.561,3.345,3.357
		c0.385,2.029,0.755,4.1,0.778,6.156c0.089,7.91,0.082,15.824,0.004,23.734c-0.02,1.98-0.372,3.967-0.689,5.93
		c-0.283,1.756-1.418,2.781-3.15,3.203c-1.073,0.26-2.123,0.617-3.184,0.932C1715.359,274.92,1704.639,274.92,1693.919,274.92z"/>
	<path fill-rule="evenodd" fill="#FFFFFF" d="M1534.559-0.12c1.072,0.26,2.144,0.527,3.218,0.778
		c1.896,0.442,3.174,1.586,3.523,3.494c0.373,2.035,0.736,4.104,0.759,6.163c0.088,7.835,0.067,15.672,0.013,23.507
		c-0.013,1.83-0.241,3.669-0.514,5.481c-0.332,2.207-1.583,3.644-3.899,3.906c-2.14,0.242-4.284,0.587-6.429,0.604
		c-8.396,0.07-16.791,0.032-25.187,0.022c-0.797-0.002-1.599-0.05-2.39-0.151c-3.683-0.476-5.018-1.79-5.508-5.477
		c-0.147-1.107-0.211-2.232-0.211-3.35c-0.002-8.873,0.003-17.746,0.057-26.619c0.008-1.186,0.273-2.374,0.469-3.553
		c0.423-2.566,2.105-3.813,4.532-4.275c0.769-0.146,1.524-0.354,2.286-0.532C1515.038-0.12,1524.799-0.12,1534.559-0.12z"/>
	<path fill-rule="evenodd" fill="#FFFFFF" d="M1583.039-0.12c1.072,0.26,2.144,0.527,3.218,0.778
		c1.896,0.442,3.174,1.586,3.523,3.494c0.373,2.035,0.736,4.104,0.759,6.163c0.087,7.835,0.067,15.672,0.012,23.507
		c-0.013,1.83-0.24,3.669-0.513,5.481c-0.332,2.207-1.583,3.644-3.9,3.906c-2.139,0.242-4.283,0.587-6.429,0.604
		c-8.395,0.07-16.791,0.032-25.187,0.022c-0.797-0.002-1.599-0.05-2.389-0.151c-3.683-0.476-5.018-1.79-5.509-5.477
		c-0.146-1.107-0.21-2.232-0.211-3.35c-0.002-8.873,0.003-17.746,0.058-26.619c0.007-1.186,0.273-2.374,0.468-3.553
		c0.424-2.566,2.106-3.813,4.533-4.275c0.768-0.146,1.524-0.354,2.286-0.532C1563.519-0.12,1573.279-0.12,1583.039-0.12z"/>
	<path fill-rule="evenodd" fill="#FFFFFF" d="M1632.479-0.12c1.073,0.26,2.144,0.527,3.219,0.778
		c1.896,0.442,3.174,1.586,3.523,3.494c0.372,2.035,0.735,4.104,0.759,6.163c0.087,7.835,0.066,15.672,0.012,23.507
		c-0.013,1.83-0.241,3.669-0.514,5.481c-0.332,2.207-1.582,3.644-3.899,3.906c-2.139,0.242-4.284,0.587-6.429,0.604
		c-8.395,0.07-16.791,0.032-25.187,0.022c-0.797-0.002-1.599-0.05-2.389-0.151c-3.683-0.476-5.019-1.79-5.509-5.477
		c-0.147-1.107-0.211-2.232-0.211-3.35c-0.002-8.873,0.003-17.746,0.057-26.619c0.008-1.186,0.274-2.374,0.469-3.553
		c0.423-2.566,2.105-3.813,4.533-4.275c0.768-0.146,1.524-0.354,2.286-0.532C1612.959-0.12,1622.719-0.12,1632.479-0.12z"/>
	<path fill-rule="evenodd" fill="#FFFFFF" d="M1680.959-0.12c1.072,0.26,2.144,0.527,3.218,0.778
		c1.896,0.442,3.174,1.586,3.523,3.494c0.373,2.035,0.736,4.104,0.759,6.163c0.088,7.835,0.067,15.672,0.013,23.507
		c-0.014,1.83-0.241,3.669-0.514,5.481c-0.332,2.207-1.583,3.644-3.899,3.906c-2.14,0.242-4.284,0.587-6.429,0.604
		c-8.396,0.07-16.791,0.032-25.187,0.022c-0.797-0.002-1.6-0.05-2.39-0.151c-3.683-0.476-5.018-1.79-5.508-5.477
		c-0.147-1.107-0.211-2.232-0.211-3.35c-0.002-8.873,0.003-17.746,0.057-26.619c0.008-1.186,0.274-2.374,0.469-3.553
		c0.423-2.566,2.105-3.813,4.532-4.275c0.769-0.146,1.524-0.354,2.286-0.532C1661.438-0.12,1671.199-0.12,1680.959-0.12z"/>
	<path fill-rule="evenodd" fill="#FFFFFF" d="M1486.079-0.12c0.832,0.204,1.658,0.432,2.496,0.609
		c2.374,0.506,3.805,1.931,4.215,4.327c0.201,1.179,0.462,2.371,0.467,3.558c0.038,9.199,0.04,18.398-0.005,27.598
		c-0.007,1.266-0.27,2.542-0.524,3.791c-0.369,1.806-1.424,3.069-3.315,3.332c-2.29,0.318-4.597,0.691-6.899,0.715
		c-8.398,0.084-16.799,0.052-25.198,0.027c-6.092-0.018-7.905-1.648-8.089-7.787c-0.19-6.395-0.121-12.798-0.091-19.197
		c0.017-3.514,0.02-7.042,0.333-10.537c0.368-4.108,1.72-5.581,6.023-6.051c0.286-0.031,0.552-0.253,0.827-0.385
		C1466.239-0.12,1476.158-0.12,1486.079-0.12z"/>
	<path fill-rule="evenodd" fill="#FFFFFF" d="M479.547,214.725c-23.515,0-47.029,0.014-70.544-0.01
		c-6.319-0.006-12.643-0.168-18.888-1.248c-2.825-0.488-5.662-1.068-8.393-1.932c-8.704-2.752-14.683-8.467-17.976-17
		c-1.8-4.665-2.799-9.52-3.206-14.464c-0.414-5.015-0.671-10.057-0.679-15.088c-0.056-35.672-0.029-71.344-0.029-107.016
		c0-7.848,0.288-15.67,2.062-23.36c0.198-0.856,0.395-1.714,0.632-2.56c3.545-12.661,12.064-19.717,24.802-22.074
		c6.791-1.257,13.646-1.642,20.53-1.644c47.829-0.008,95.658-0.01,143.487,0.002c7.607,0.002,15.188,0.37,22.635,2.114
		c1.32,0.309,2.638,0.663,3.92,1.102c9.396,3.214,15.434,9.65,18.251,19.142c1.949,6.569,2.476,13.344,2.803,20.138
		c0.127,2.634,0.097,5.277,0.098,7.916c0.005,35.192-0.004,70.384,0.009,105.576c0.003,8.089-0.279,16.15-1.936,24.102
		c-0.31,1.484-0.671,2.965-1.126,4.41c-3.413,10.842-10.937,17.146-21.838,19.697c-7.763,1.816-15.667,2.172-23.591,2.184
		C526.896,214.746,503.222,214.725,479.547,214.725z M394.47,36.461c-0.521,3.206-0.38,147.56,0.13,149.308
		c56.725,0,113.468,0,170.189,0c0.459-3.269,0.307-147.533-0.156-149.308C507.97,36.461,451.285,36.461,394.47,36.461z"/>
	<path fill-rule="evenodd" fill="#FFFFFF" d="M879.824,66.332c0-10.238,0-19.969,0-29.823c-48.64,0-97.083,0-145.523,0
		c-0.486,1.682-0.644,53.845-0.134,57.465c0.881,0,1.816,0,2.752,0c42.315,0.001,84.631,0,126.946,0.001
		c7.855,0,15.665,0.48,23.322,2.386c1.547,0.385,3.074,0.878,4.57,1.428c7.989,2.933,13.432,8.427,16.407,16.392
		c2.008,5.371,2.96,10.979,3.272,16.648c0.872,15.822,0.879,31.66-0.028,47.48c-0.232,4.046-0.955,8.107-1.88,12.063
		c-2.801,11.993-10.404,19.292-22.344,22.129c-7.441,1.768-15.027,2.197-22.631,2.205c-40.556,0.039-81.111,0.035-121.667,0.002
		c-6.881-0.006-13.74-0.434-20.527-1.723c-13.403-2.549-21.803-10.318-24.976-23.665c-2.259-9.499-2.427-19.144-2.285-29.032
		c10.607-2.517,21.136-5.015,31.974-7.585c0,11.206,0,22.05,0,33.057c51.302,0,102.365,0,153.519,0c0-20.591,0-41.023,0-61.733
		c-1.162,0-2.181,0-3.2,0c-41.355,0-82.711,0.01-124.065-0.01c-7.762-0.003-15.518-0.214-23.167-1.744
		c-1.564-0.313-3.124-0.683-4.653-1.136c-8.973-2.657-15.073-8.421-18.425-17.134c-1.909-4.966-2.92-10.146-3.355-15.414
		c-1.103-13.335-0.673-26.698-0.385-40.049c0.114-5.271,0.93-10.5,2.242-15.638c3.318-12.984,11.544-20.601,24.744-22.952
		c6.802-1.211,13.651-1.618,20.536-1.62c36.877-0.009,73.752-0.01,110.628,0.001c7.129,0.002,14.216,0.456,21.229,1.877
		c13.292,2.692,21.444,10.685,24.721,23.765c1.96,7.824,2.264,15.788,2.061,23.944C899.7,60.696,889.965,63.456,879.824,66.332z"/>
	<path fill-rule="evenodd" fill="#FFFFFF" d="M1818.628,50.945c0.185,2.037,0.471,4.071,0.535,6.112
		c0.247,7.833,0.588,15.667,0.598,23.502c0.056,44.718,0.027,89.437,0.027,134.154c0,0.943-0.001,1.887-0.001,2.961
		c-9.778,0-19.338,0-29.05,0c0-68.727,0-137.398,0-206.285c0.932,0,1.715,0,2.499,0c7.68,0,15.359,0.052,23.038-0.041
		c1.697-0.021,2.745,0.491,3.766,1.861c22.601,30.338,45.25,60.64,67.891,90.948c9.765,13.071,19.53,26.143,29.299,39.211
		c0.518,0.692,1.063,1.363,1.792,2.297c0.677-0.914,1.245-1.645,1.774-2.403c29.482-42.328,58.959-84.66,88.446-126.984
		c1.138-1.633,2.063-3.772,3.651-4.627c1.498-0.808,3.742-0.255,5.658-0.258c7.6-0.011,15.199-0.004,22.799-0.004
		c0.867,0,1.734,0,2.763,0c0,68.853,0,137.513,0,206.298c-10.457,0-20.815,0-31.329,0c-0.052-0.77-0.138-1.463-0.138-2.158
		c-0.005-45.758-0.063-91.516,0.056-137.274c0.021-8.147,0.778-16.293,1.197-24.438c0.069-1.341,0.147-2.68-0.132-4.146
		c-0.312,0.494-0.679,0.963-0.927,1.486c-4.022,8.472-8.84,16.451-14.17,24.178c-24.75,35.876-49.383,71.833-73.997,107.802
		c-1.175,1.717-2.358,2.586-4.468,2.341c-1.968-0.228-4.245,0.383-5.875-0.417c-1.541-0.756-2.449-2.844-3.582-4.385
		c-25.864-35.186-51.727-70.372-77.571-105.572c-2.177-2.964-4.216-6.028-6.339-9.032c-2.973-4.206-5.268-8.763-7.104-13.562
		c-0.216-0.562-0.451-1.115-0.677-1.673C1818.915,50.873,1818.771,50.909,1818.628,50.945z"/>
	<path fill-rule="evenodd" fill="#FFFFFF" d="M1240.059,214.572c-1.135,0.064-1.904,0.146-2.674,0.146
		c-10.958,0.008-21.916-0.035-32.873,0.047c-1.772,0.014-2.687-0.58-3.487-2.137c-7.933-15.424-15.942-30.81-23.932-46.206
		c-0.405-0.779-0.82-1.553-1.352-2.558c-0.803,0-1.668,0-2.533,0c-44.872,0-89.743,0.013-134.615-0.046
		c-1.877-0.002-2.813,0.585-3.661,2.236c-7.961,15.5-16.039,30.94-24.005,46.438c-0.837,1.629-1.729,2.305-3.642,2.283
		c-9.598-0.115-19.196-0.051-28.795-0.059c-0.771,0-1.544-0.074-2.582-0.127c0.457-0.939,0.766-1.645,1.134-2.318
		C1013.801,145,1050.57,77.732,1087.295,10.44c0.871-1.596,1.774-2.272,3.682-2.252c10.557,0.11,21.115,0.111,31.673,0.002
		c2.047-0.021,3.085,0.649,4.071,2.426c32.046,57.733,64.153,115.433,96.251,173.137c5.246,9.431,10.494,18.863,15.737,28.294
		C1239.121,212.787,1239.508,213.539,1240.059,214.572z M1161.671,137.276c-18.551-35.228-36.941-70.153-55.526-105.447
		c-18.618,35.361-36.995,70.264-55.52,105.447C1087.719,137.276,1124.455,137.276,1161.671,137.276z"/>
	<path fill-rule="evenodd" fill="#FFFFFF" d="M1341.185,214.588c-11.389,0-22.633,0-34.021,0c0-68.72,0-137.306-0.001-205.892
		c1.612-0.553,30.075-0.764,33.873-0.251C1341.546,10.075,1341.727,211.123,1341.185,214.588z"/>
	<path fill-rule="evenodd" fill="#FFFFFF" d="M1520.005,90.884c-4.554,0-9.108,0.01-13.662-0.008
		c-0.955-0.004-1.918-0.052-2.864-0.179c-3.444-0.462-4.746-1.706-5.285-5.144c-0.197-1.258-0.269-2.547-0.269-3.821
		c-0.001-8.866,0.008-17.732,0.082-26.598c0.012-1.339,0.301-2.696,0.614-4.008c0.422-1.765,1.521-3.021,3.361-3.348
		c2.035-0.361,4.095-0.783,6.147-0.808c7.908-0.093,15.819-0.087,23.728-0.002c1.977,0.021,3.961,0.4,5.918,0.751
		c1.911,0.342,3.168,1.564,3.526,3.471c0.367,1.953,0.735,3.941,0.756,5.918c0.084,8.068,0.085,16.139-0.001,24.207
		c-0.021,1.976-0.41,3.961-0.765,5.917c-0.283,1.563-1.362,2.598-2.9,2.836c-2.438,0.377-4.901,0.694-7.363,0.781
		C1527.358,90.979,1523.68,90.884,1520.005,90.884z"/>
	<path fill-rule="evenodd" fill="#FFFFFF" d="M1666.392,90.884c-4.555,0-9.108,0.01-13.662-0.008
		c-0.955-0.005-1.918-0.053-2.864-0.181c-3.438-0.464-4.737-1.713-5.273-5.155c-0.196-1.258-0.269-2.547-0.269-3.821
		c0.001-8.866,0.01-17.732,0.086-26.598c0.011-1.339,0.302-2.695,0.616-4.008c0.423-1.766,1.533-3.007,3.37-3.34
		c1.956-0.354,3.936-0.778,5.909-0.801c8.067-0.089,16.139-0.084,24.206-0.001c1.896,0.02,3.801,0.406,5.678,0.752
		c1.912,0.352,3.168,1.574,3.516,3.48c0.37,2.033,0.732,4.102,0.756,6.159c0.086,7.828,0.083,15.659,0.001,23.487
		c-0.021,2.059-0.378,4.124-0.71,6.165c-0.287,1.766-1.453,2.864-3.206,3.112c-2.364,0.335-4.747,0.646-7.13,0.725
		C1673.744,90.972,1670.066,90.884,1666.392,90.884z"/>
	<path fill-rule="evenodd" fill="#FFFFFF" d="M1568.382,90.884c-4.475,0-8.948,0.009-13.422-0.008
		c-0.956-0.003-1.919-0.038-2.866-0.159c-3.588-0.459-4.909-1.724-5.438-5.265c-0.177-1.181-0.241-2.389-0.241-3.584
		c-0.004-8.865-0.004-17.731,0.063-26.597c0.01-1.341,0.293-2.696,0.587-4.014c0.417-1.869,1.562-3.167,3.496-3.511
		c1.957-0.349,3.938-0.755,5.913-0.776c7.988-0.087,15.979-0.074,23.967-0.006c1.823,0.015,3.658,0.311,5.46,0.632
		c2.171,0.388,3.62,1.693,3.978,3.924c0.315,1.964,0.646,3.951,0.666,5.932c0.075,7.829,0.081,15.659-0.004,23.488
		c-0.021,2.058-0.393,4.122-0.732,6.161c-0.278,1.663-1.39,2.741-3.036,2.992c-2.36,0.359-4.744,0.678-7.126,0.757
		C1575.895,90.974,1572.137,90.883,1568.382,90.884z"/>
	<path fill-rule="evenodd" fill="#FFFFFF" d="M1519.839,184.964c-4.475,0-8.948,0.005-13.422-0.005
		c-0.798-0.001-1.6-0.014-2.392-0.102c-4.146-0.459-5.6-1.886-5.92-6.103c-0.212-2.783-0.258-5.585-0.254-8.379
		c0.009-7.109,0.051-14.219,0.172-21.326c0.023-1.415,0.36-2.848,0.729-4.226c0.395-1.477,1.393-2.55,2.931-2.875
		c1.789-0.378,3.605-0.851,5.415-0.869c8.627-0.089,17.256-0.077,25.883,0.001c1.654,0.015,3.314,0.435,4.952,0.766
		c1.823,0.37,3.004,1.559,3.345,3.354c0.386,2.03,0.757,4.099,0.779,6.154c0.089,7.909,0.07,15.819,0.011,23.728
		c-0.014,1.826-0.271,3.661-0.549,5.472c-0.327,2.117-1.557,3.484-3.756,3.748c-2.215,0.266-4.437,0.571-6.661,0.632
		C1527.351,185.04,1523.594,184.964,1519.839,184.964z"/>
	<path fill-rule="evenodd" fill="#FFFFFF" d="M1568.437,184.964c-4.554,0-9.107,0.008-13.661-0.007
		c-0.876-0.003-1.759-0.04-2.627-0.151c-3.688-0.469-5.027-1.778-5.52-5.455c-0.159-1.185-0.23-2.39-0.229-3.586
		c0.005-8.865,0.009-17.732,0.095-26.598c0.014-1.415,0.332-2.854,0.694-4.233c0.412-1.564,1.45-2.686,3.091-3.021
		c1.714-0.351,3.45-0.813,5.181-0.829c8.628-0.086,17.257-0.086,25.884-0.005c1.731,0.017,3.471,0.46,5.185,0.81
		c1.731,0.354,2.869,1.508,3.195,3.2c0.407,2.105,0.787,4.255,0.813,6.39c0.095,7.828,0.075,15.659,0.011,23.488
		c-0.016,1.904-0.292,3.816-0.585,5.705c-0.313,2.024-1.509,3.344-3.604,3.604c-2.292,0.284-4.594,0.592-6.897,0.66
		C1575.79,185.044,1572.112,184.964,1568.437,184.964z"/>
	<path fill-rule="evenodd" fill="#FFFFFF" d="M1666.26,184.964c-4.474,0-8.948,0.007-13.422-0.006
		c-0.877-0.003-1.76-0.027-2.628-0.132c-3.9-0.471-5.263-1.859-5.7-5.811c-0.114-1.03-0.182-2.072-0.181-3.108
		c0.003-8.866-0.002-17.732,0.074-26.598c0.013-1.417,0.319-2.855,0.663-4.241c0.413-1.664,1.485-2.858,3.226-3.182
		c1.954-0.364,3.933-0.808,5.904-0.831c8.148-0.092,16.299-0.094,24.446,0.003c1.971,0.022,3.948,0.481,5.898,0.861
		c1.639,0.319,2.737,1.444,3.062,3.032c0.43,2.101,0.826,4.25,0.853,6.383c0.099,7.908,0.072,15.818,0.015,23.728
		c-0.014,1.826-0.266,3.662-0.545,5.472c-0.325,2.111-1.535,3.499-3.74,3.765c-2.215,0.267-4.437,0.574-6.66,0.636
		C1673.771,185.04,1670.015,184.964,1666.26,184.964z"/>
	<path fill-rule="evenodd" fill="#FFFFFF" d="M1519.788,231.523c-4.635,0-9.268,0.023-13.902-0.006
		c-5.893-0.039-7.735-1.605-7.844-7.447c-0.176-9.422-0.075-18.848-0.041-28.271c0.005-1.184,0.281-2.371,0.489-3.547
		c0.412-2.331,1.893-3.668,4.152-4.05c1.883-0.318,3.8-0.583,5.704-0.6c7.749-0.066,15.5-0.072,23.248,0.004
		c1.981,0.02,3.974,0.332,5.933,0.672c2.08,0.361,3.475,1.638,3.835,3.763c0.333,1.959,0.68,3.947,0.699,5.926
		c0.079,7.908,0.079,15.82,0,23.729c-0.021,1.979-0.378,3.963-0.7,5.926c-0.289,1.762-1.426,2.887-3.181,3.139
		c-2.364,0.342-4.746,0.656-7.129,0.732C1527.301,231.611,1523.543,231.523,1519.788,231.523z"/>
	<path fill-rule="evenodd" fill="#FFFFFF" d="M1568.487,231.523c-4.554,0-9.107,0.01-13.661-0.008
		c-0.956-0.004-1.918-0.051-2.864-0.178c-3.447-0.461-4.748-1.703-5.288-5.141c-0.197-1.258-0.269-2.547-0.269-3.82
		c-0.001-8.867,0.007-17.732,0.082-26.598c0.012-1.34,0.3-2.697,0.613-4.009c0.421-1.764,1.519-3.022,3.359-3.35
		c2.034-0.361,4.094-0.783,6.147-0.808c7.908-0.094,15.818-0.081,23.728-0.006c1.9,0.018,3.813,0.341,5.691,0.676
		c2.084,0.371,3.464,1.655,3.821,3.778c0.33,1.959,0.675,3.947,0.694,5.926c0.078,7.91,0.084,15.82-0.004,23.729
		c-0.022,2.057-0.409,4.121-0.767,6.156c-0.275,1.563-1.358,2.6-2.896,2.838c-2.438,0.377-4.901,0.695-7.363,0.781
		C1575.841,231.619,1572.163,231.523,1568.487,231.523z"/>
	<path fill-rule="evenodd" fill="#FFFFFF" d="M1617.771,231.523c-4.474,0-8.947,0.008-13.422-0.006
		c-0.876-0.002-1.759-0.027-2.628-0.133c-3.827-0.461-5.186-1.793-5.665-5.578c-0.141-1.107-0.207-2.23-0.207-3.348
		c0.001-8.865-0.002-17.73,0.074-26.598c0.013-1.416,0.32-2.854,0.665-4.24c0.414-1.665,1.492-2.842,3.23-3.18
		c1.796-0.349,3.613-0.796,5.426-0.813c8.467-0.084,16.937-0.083,25.404,0.008c1.811,0.019,3.628,0.477,5.42,0.844
		c1.636,0.336,2.732,1.453,3.056,3.04c0.428,2.101,0.823,4.25,0.85,6.384c0.099,7.908,0.073,15.818,0.015,23.727
		c-0.014,1.826-0.268,3.662-0.547,5.473c-0.325,2.113-1.543,3.492-3.746,3.758c-2.214,0.266-4.436,0.572-6.66,0.635
		C1625.284,231.6,1621.526,231.523,1617.771,231.523z"/>
	<path fill-rule="evenodd" fill="#FFFFFF" d="M1666.363,231.523c-4.554,0-9.108,0.008-13.662-0.006
		c-0.876-0.002-1.759-0.039-2.627-0.15c-3.692-0.469-5.03-1.775-5.524-5.451c-0.16-1.184-0.23-2.389-0.23-3.584
		c0.006-8.867,0.009-17.732,0.095-26.598c0.014-1.416,0.331-2.855,0.693-4.235c0.41-1.564,1.447-2.682,3.086-3.026
		c1.636-0.344,3.291-0.805,4.941-0.82c8.787-0.083,17.576-0.083,26.363-0.006c1.651,0.015,3.311,0.457,4.945,0.798
		c1.729,0.36,2.871,1.506,3.199,3.198c0.407,2.105,0.788,4.255,0.814,6.388c0.095,7.83,0.075,15.66,0.011,23.488
		c-0.016,1.904-0.291,3.818-0.583,5.707c-0.313,2.021-1.504,3.348-3.601,3.607c-2.292,0.285-4.593,0.592-6.896,0.66
		C1673.716,231.604,1670.038,231.523,1666.363,231.523z"/>
	<path fill-rule="evenodd" fill="#FFFFFF" d="M1617.865,90.884c-4.554,0-9.108,0.008-13.662-0.007
		c-0.876-0.003-1.758-0.042-2.626-0.152c-3.683-0.471-5.02-1.784-5.51-5.466c-0.157-1.186-0.23-2.39-0.229-3.586
		c0.006-8.865,0.022-17.732,0.089-26.598c0.01-1.183,0.287-2.37,0.504-3.544c0.41-2.22,1.813-3.539,3.979-3.932
		c1.802-0.325,3.637-0.62,5.46-0.636c7.988-0.067,15.979-0.062,23.968-0.003c1.745,0.013,3.502,0.274,5.229,0.563
		c2.358,0.393,3.936,1.749,4.313,4.184c0.292,1.888,0.59,3.799,0.606,5.702c0.067,7.829,0.066,15.659,0.001,23.487
		c-0.016,1.904-0.295,3.817-0.587,5.705c-0.315,2.028-1.521,3.337-3.613,3.596c-2.292,0.283-4.594,0.589-6.897,0.657
		C1625.218,90.963,1621.54,90.884,1617.865,90.884z"/>
	<path fill-rule="evenodd" fill="#FFFFFF" d="M1471.265,90.884c-4.554,0-9.108,0.019-13.662-0.013
		c-1.193-0.009-2.4-0.082-3.575-0.281c-2.663-0.451-3.931-1.662-4.389-4.354c-0.308-1.802-0.481-3.647-0.494-5.476
		c-0.052-7.75-0.054-15.5,0.002-23.249c0.013-1.827,0.24-3.663,0.505-5.476c0.38-2.597,1.949-4.151,4.541-4.546
		c1.732-0.264,3.487-0.519,5.234-0.531c7.909-0.056,15.82-0.08,23.729,0.016c2.053,0.024,4.112,0.452,6.145,0.828
		c1.73,0.32,2.834,1.496,3.225,3.18c0.359,1.546,0.716,3.138,0.729,4.711c0.069,8.947,0.06,17.896,0.013,26.844
		c-0.008,1.424-0.268,2.86-0.542,4.266c-0.352,1.805-1.414,3.073-3.305,3.33c-2.366,0.323-4.747,0.643-7.13,0.72
		C1478.618,90.971,1474.939,90.883,1471.265,90.884z"/>
	<path fill-rule="evenodd" fill="#FFFFFF" d="M1471.232,184.964c-4.634,0-9.268,0.018-13.901-0.005
		c-6.097-0.028-7.976-1.641-8.095-7.756c-0.18-9.264-0.179-18.536-0.011-27.8c0.112-6.164,1.693-7.631,7.841-8.271
		c0.951-0.1,1.914-0.112,2.872-0.113c7.51-0.01,15.02-0.036,22.529,0.017c1.828,0.013,3.672,0.195,5.479,0.483
		c3.137,0.5,4.281,1.617,4.884,4.73c0.286,1.48,0.456,3.007,0.464,4.514c0.043,8.309,0.054,16.618-0.006,24.927
		c-0.012,1.743-0.271,3.5-0.578,5.222c-0.323,1.813-1.435,3.057-3.322,3.309c-2.367,0.316-4.748,0.636-7.131,0.713
		C1478.586,185.051,1474.908,184.964,1471.232,184.964z"/>
	<path fill-rule="evenodd" fill="#FFFFFF" d="M1471.28,231.523c-4.634,0-9.269,0.025-13.902-0.016
		c-1.271-0.012-2.561-0.117-3.807-0.361c-2.07-0.404-3.439-1.688-3.846-3.783c-0.286-1.484-0.532-3.004-0.541-4.51
		c-0.051-8.707-0.057-17.416,0.004-26.125c0.011-1.58,0.305-3.178,0.638-4.732c0.419-1.957,1.635-3.303,3.663-3.659
		c1.881-0.331,3.785-0.709,5.683-0.728c8.069-0.079,16.14-0.093,24.208,0.009c2.049,0.025,4.108,0.484,6.133,0.893
		c1.524,0.308,2.546,1.369,2.923,2.873c0.366,1.463,0.785,2.967,0.797,4.456c0.07,9.346,0.042,18.693,0.017,28.041
		c-0.003,0.869-0.166,1.748-0.335,2.605c-0.63,3.209-1.385,4.035-4.644,4.563c-1.963,0.318-3.974,0.418-5.965,0.455
		C1478.631,231.572,1474.955,231.523,1471.28,231.523z"/>
	<path fill-rule="evenodd" fill="#FFFFFF" d="M1497.998,115.796c0-4.712-0.141-9.429,0.036-14.134
		c0.219-5.828,1.85-7.575,7.745-7.702c9.42-0.204,18.847-0.068,28.271-0.049c0.87,0.002,1.752,0.146,2.607,0.326
		c3.438,0.726,4.578,1.914,5.059,5.423c0.227,1.657,0.354,3.341,0.362,5.014c0.038,7.509,0.058,15.019-0.01,22.528
		c-0.02,2.064-0.298,4.135-0.583,6.186c-0.303,2.173-1.705,3.388-3.825,3.694c-1.813,0.263-3.646,0.53-5.472,0.542
		c-8.947,0.056-17.896,0.026-26.844,0.026c-0.319,0-0.639,0.001-0.958-0.016c-4.152-0.223-5.983-1.847-6.26-6.031
		c-0.258-3.9-0.213-7.821-0.285-11.733c-0.025-1.357-0.005-2.716-0.005-4.074C1497.892,115.796,1497.944,115.796,1497.998,115.796z"
		/>
	<path fill-rule="evenodd" fill="#FFFFFF" d="M1567.725,137.652c-4.314,0-8.628,0-12.942-0.001c-0.639,0-1.279,0.016-1.917-0.018
		c-4.151-0.218-5.865-1.854-6.288-6.029c-0.112-1.111-0.197-2.231-0.195-3.349c0.008-8.706,0.016-17.412,0.09-26.117
		c0.012-1.342,0.298-2.693,0.575-4.016c0.416-1.991,1.673-3.293,3.677-3.634c2.037-0.348,4.108-0.669,6.168-0.69
		c7.669-0.08,15.34-0.078,23.008-0.001c2.061,0.021,4.132,0.332,6.173,0.668c1.992,0.327,3.355,1.555,3.72,3.573
		c0.366,2.033,0.725,4.102,0.748,6.158c0.086,7.828,0.072,15.658,0.008,23.486c-0.016,1.904-0.305,3.815-0.58,5.707
		c-0.316,2.172-1.709,3.396-3.829,3.69c-1.973,0.272-3.965,0.507-5.952,0.546C1576.034,137.708,1571.879,137.651,1567.725,137.652z"
		/>
	<path fill-rule="evenodd" fill="#FFFFFF" d="M1617.065,137.652c-4.314,0-8.628,0.001-12.942-0.001
		c-0.639,0-1.279,0.016-1.917-0.022c-4.033-0.24-5.729-1.847-6.176-5.885c-0.114-1.03-0.185-2.072-0.184-3.108
		c0.004-8.866,0.008-17.731,0.072-26.597c0.009-1.262,0.285-2.532,0.532-3.78c0.415-2.094,1.699-3.441,3.808-3.795
		c1.962-0.328,3.952-0.646,5.933-0.665c7.828-0.074,15.658-0.066,23.487-0.002c1.823,0.015,3.649,0.325,5.463,0.578
		c2.443,0.342,3.869,1.838,4.259,4.217c0.309,1.885,0.571,3.8,0.587,5.704c0.065,7.749,0.068,15.499-0.001,23.247
		c-0.018,1.983-0.326,3.972-0.61,5.941c-0.299,2.078-1.64,3.268-3.66,3.566c-1.969,0.291-3.962,0.534-5.948,0.574
		C1625.535,137.71,1621.3,137.651,1617.065,137.652z"/>
	<path fill-rule="evenodd" fill="#FFFFFF" d="M1665.848,137.652c-4.394,0-8.788,0-13.182-0.001c-0.64,0-1.279,0.016-1.917-0.02
		c-4.055-0.223-5.773-1.817-6.231-5.825c-0.127-1.109-0.201-2.231-0.2-3.348c0.011-8.865,0.02-17.731,0.1-26.596
		c0.012-1.339,0.308-2.694,0.621-4.007c0.425-1.783,1.611-3.002,3.408-3.315c2.192-0.382,4.424-0.714,6.643-0.74
		c7.508-0.09,15.02-0.084,22.528-0.003c2.14,0.023,4.292,0.331,6.41,0.678c1.995,0.327,3.338,1.582,3.694,3.599
		c0.36,2.035,0.716,4.103,0.738,6.159c0.085,7.828,0.063,15.658,0.014,23.487c-0.012,1.749-0.227,3.507-0.467,5.244
		c-0.335,2.427-1.74,3.894-4.219,4.174c-1.9,0.214-3.809,0.455-5.718,0.49C1673.997,137.703,1669.922,137.652,1665.848,137.652z"/>
	<path fill-rule="evenodd" fill="#FFFFFF" d="M1470.517,137.651c-4.475,0.001-8.948,0.005-13.422-0.003
		c-0.798-0.002-1.605,0.009-2.392-0.101c-3.286-0.458-4.644-1.726-5.144-5.011c-0.275-1.809-0.409-3.653-0.42-5.482
		c-0.046-7.431-0.055-14.86,0.005-22.29c0.016-1.986,0.223-3.985,0.52-5.952c0.369-2.453,1.755-4.097,4.326-4.438
		c1.974-0.262,3.96-0.564,5.943-0.582c7.51-0.067,15.021-0.076,22.529,0.004c2.141,0.022,4.291,0.339,6.413,0.668
		c2.128,0.33,3.41,1.738,3.811,3.798c0.334,1.715,0.588,3.476,0.601,5.218c0.062,8.309,0.056,16.618,0.004,24.927
		c-0.011,1.665-0.27,3.337-0.52,4.989c-0.311,2.052-1.575,3.316-3.606,3.63c-1.968,0.304-3.96,0.556-5.946,0.598
		C1478.986,137.712,1474.751,137.651,1470.517,137.651z"/>
</g>
</svg>
