<?xml version="1.0" encoding="utf-8"?>
<!-- Generator: Adobe Illustrator 16.0.3, SVG Export Plug-In . SVG Version: 6.00 Build 0)  -->
<svg version="1.2" baseProfile="tiny" id="Layer_1" xmlns="http://www.w3.org/2000/svg" xmlns:xlink="http://www.w3.org/1999/xlink"
	 x="0px" y="0px" width="2351.045px" height="274.801px" viewBox="0 0 2351.045 274.801" xml:space="preserve">
<g>
	<path fill-rule="evenodd" d="M0.48,9.12c0.949-0.093,1.898-0.265,2.847-0.267c7.759-0.022,15.519,0.033,23.278-0.048
		c1.698-0.019,2.743,0.535,3.763,1.902c32.417,43.469,64.879,86.904,97.335,130.343c0.475,0.637,0.974,1.254,1.655,2.127
		c0.679-0.943,1.272-1.742,1.84-2.559c29.846-42.852,59.685-85.71,89.545-128.552c2.738-3.928,1.349-3.188,6.122-3.214
		c8.239-0.046,16.479-0.013,24.718-0.013c0.866,0,1.731,0,2.536,0c0.518,1.989,0.608,203.767,0.126,206.342
		c-10.267,0-20.561,0-31.183,0c-0.035-0.996-0.099-1.998-0.099-3c-0.006-20.078-0.004-40.156-0.004-60.235
		c0-22.479,0.059-44.957-0.023-67.435c-0.045-12.331,0.646-24.621,1.519-36.909c0.011-0.155-0.032-0.313-0.089-0.819
		c-0.423,0.586-0.769,0.936-0.964,1.354c-4.266,9.162-9.582,17.681-15.321,25.997c-24.346,35.278-48.55,70.655-72.809,105.994
		c-0.63,0.919-1.287,1.818-1.957,2.763c-2.223,0-4.384-0.091-6.534,0.029c-1.592,0.089-2.599-0.421-3.56-1.754
		c-5.471-7.591-11.054-15.102-16.595-22.642c-21.074-28.68-42.157-57.353-63.205-86.051c-2.694-3.674-5.397-7.368-7.737-11.269
		c-2.087-3.478-3.687-7.25-5.479-10.903c-0.382-0.778-0.667-1.605-1.314-2.37c0.15,1.74,0.358,3.478,0.44,5.221
		c0.298,6.31,0.78,12.621,0.79,18.933c0.073,46.956,0.049,93.912,0.055,140.869c0,0.635,0,1.27,0,2.041
		c-0.619,0.121-1.138,0.31-1.657,0.311c-8.719,0.019-17.438,0.021-26.158,0.003c-0.628-0.001-1.256-0.176-1.884-0.271
		C0.48,146.4,0.48,77.76,0.48,9.12z"/>
	<path fill-rule="evenodd" d="M2351.524,218.4c-61.033,0.004-122.066,0.008-183.099,0.012c-4.8,0-9.599,0-14.398,0
		c-0.787,0-1.573,0-2.525,0c0-68.829,0-137.483,0-206.268c66.188,0,132.29,0,198.518,0c0,9.133,0,18.141,0,27.508
		c-6.809,0.027-13.575,0.009-20.342,0.013c-6.879,0.003-13.758,0-20.638,0c-6.799,0-13.599,0-20.397,0c-6.879,0-13.759,0-20.638,0
		c-6.799,0-13.599,0-20.397,0c-6.8,0-13.599,0-20.398,0c-6.879,0-13.758,0-20.637,0c-6.793,0-13.587,0-20.334,0
		c-0.558,1.821-0.676,54.761-0.126,57.54c33.201,0,66.45,0,99.632,0c0.554,1.956,0.741,21.75,0.316,26.733
		c-0.053,0.06-0.102,0.125-0.161,0.177c-0.058,0.05-0.122,0.104-0.192,0.122c-0.153,0.04-0.312,0.072-0.471,0.083
		c-0.238,0.018-0.479,0.019-0.719,0.019c-32.636,0.011-65.271,0.021-97.908,0.032c-0.079,0-0.161,0.009-0.236,0.031
		c-0.073,0.022-0.139,0.068-0.207,0.104c-0.473,1.718-0.611,62.323-0.126,65.469c0.666,0.038,1.364,0.114,2.063,0.114
		c54.473,0.001,108.947-0.004,163.421-0.009C2351.524,199.521,2351.524,208.961,2351.524,218.4z"/>
	<path fill-rule="evenodd" d="M1693.443,275.521c-0.248-0.18-0.472-0.446-0.748-0.524c-2.724-0.771-3.712-2.825-3.996-5.382
		c-0.123-1.11-0.205-2.231-0.205-3.349c0.002-8.868-0.002-17.736,0.074-26.604c0.013-1.418,0.32-2.856,0.666-4.241
		c0.414-1.666,1.497-2.824,3.232-3.184c1.56-0.322,3.137-0.767,4.709-0.78c8.87-0.076,17.741-0.077,26.61-0.006
		c1.574,0.013,3.154,0.434,4.714,0.757c1.822,0.377,3.004,1.562,3.345,3.357c0.385,2.03,0.755,4.101,0.778,6.157
		c0.089,7.91,0.082,15.823,0.004,23.733c-0.02,1.98-0.372,3.967-0.689,5.931c-0.283,1.756-1.418,2.781-3.15,3.202
		c-1.073,0.26-2.123,0.618-3.184,0.933C1714.884,275.521,1704.163,275.521,1693.443,275.521z"/>
	<path fill-rule="evenodd" d="M1534.083,0.48c1.072,0.26,2.144,0.527,3.218,0.778c1.896,0.442,3.174,1.586,3.523,3.494
		c0.373,2.035,0.736,4.104,0.759,6.163c0.088,7.835,0.067,15.672,0.013,23.507c-0.013,1.83-0.241,3.669-0.514,5.481
		c-0.332,2.207-1.583,3.644-3.899,3.906c-2.14,0.242-4.284,0.587-6.429,0.604c-8.396,0.07-16.791,0.032-25.187,0.022
		c-0.797-0.002-1.599-0.05-2.39-0.151c-3.683-0.476-5.018-1.79-5.508-5.477c-0.147-1.107-0.211-2.232-0.211-3.35
		c-0.002-8.873,0.003-17.746,0.057-26.619c0.008-1.186,0.273-2.374,0.469-3.553c0.423-2.566,2.105-3.813,4.532-4.275
		c0.769-0.146,1.524-0.354,2.286-0.532C1514.563,0.48,1524.323,0.48,1534.083,0.48z"/>
	<path fill-rule="evenodd" d="M1582.563,0.48c1.072,0.26,2.144,0.527,3.218,0.778c1.896,0.442,3.174,1.586,3.523,3.494
		c0.373,2.035,0.736,4.104,0.759,6.163c0.087,7.835,0.067,15.672,0.012,23.507c-0.013,1.83-0.24,3.669-0.513,5.481
		c-0.332,2.207-1.583,3.644-3.9,3.906c-2.139,0.242-4.283,0.587-6.429,0.604c-8.395,0.07-16.791,0.032-25.187,0.022
		c-0.797-0.002-1.599-0.05-2.389-0.151c-3.683-0.476-5.018-1.79-5.509-5.477c-0.146-1.107-0.21-2.232-0.211-3.35
		c-0.002-8.873,0.003-17.746,0.058-26.619c0.007-1.186,0.273-2.374,0.468-3.553c0.424-2.566,2.106-3.813,4.533-4.275
		c0.768-0.146,1.524-0.354,2.286-0.532C1563.043,0.48,1572.804,0.48,1582.563,0.48z"/>
	<path fill-rule="evenodd" d="M1632.003,0.48c1.073,0.26,2.144,0.527,3.219,0.778c1.896,0.442,3.174,1.586,3.523,3.494
		c0.372,2.035,0.735,4.104,0.759,6.163c0.087,7.835,0.066,15.672,0.012,23.507c-0.013,1.83-0.241,3.669-0.514,5.481
		c-0.332,2.207-1.582,3.644-3.899,3.906c-2.139,0.242-4.284,0.587-6.429,0.604c-8.395,0.07-16.791,0.032-25.187,0.022
		c-0.797-0.002-1.599-0.05-2.389-0.151c-3.683-0.476-5.019-1.79-5.509-5.477c-0.147-1.107-0.211-2.232-0.211-3.35
		c-0.002-8.873,0.003-17.746,0.057-26.619c0.008-1.186,0.274-2.374,0.469-3.553c0.423-2.566,2.105-3.813,4.533-4.275
		c0.768-0.146,1.524-0.354,2.286-0.532C1612.483,0.48,1622.243,0.48,1632.003,0.48z"/>
	<path fill-rule="evenodd" d="M1680.483,0.48c1.072,0.26,2.144,0.527,3.218,0.778c1.896,0.442,3.174,1.586,3.523,3.494
		c0.373,2.035,0.736,4.104,0.759,6.163c0.088,7.835,0.067,15.672,0.013,23.507c-0.014,1.83-0.241,3.669-0.514,5.481
		c-0.332,2.207-1.583,3.644-3.899,3.906c-2.14,0.242-4.284,0.587-6.429,0.604c-8.396,0.07-16.791,0.032-25.187,0.022
		c-0.797-0.002-1.6-0.05-2.39-0.151c-3.683-0.476-5.018-1.79-5.508-5.477c-0.147-1.107-0.211-2.232-0.211-3.35
		c-0.002-8.873,0.003-17.746,0.057-26.619c0.008-1.186,0.274-2.374,0.469-3.553c0.423-2.566,2.105-3.813,4.532-4.275
		c0.769-0.146,1.524-0.354,2.286-0.532C1660.963,0.48,1670.724,0.48,1680.483,0.48z"/>
	<path fill-rule="evenodd" d="M1485.604,0.48c0.832,0.204,1.658,0.432,2.496,0.609c2.374,0.506,3.805,1.931,4.215,4.327
		c0.201,1.179,0.462,2.371,0.467,3.558c0.038,9.199,0.04,18.398-0.005,27.598c-0.007,1.266-0.27,2.542-0.524,3.791
		c-0.369,1.806-1.424,3.069-3.315,3.332c-2.29,0.318-4.597,0.691-6.899,0.715c-8.398,0.084-16.799,0.052-25.198,0.027
		c-6.092-0.018-7.905-1.648-8.089-7.787c-0.19-6.395-0.121-12.798-0.091-19.197c0.017-3.514,0.02-7.042,0.333-10.537
		c0.368-4.108,1.72-5.581,6.023-6.051c0.286-0.031,0.552-0.253,0.827-0.385C1465.764,0.48,1475.683,0.48,1485.604,0.48z"/>
	<path fill-rule="evenodd" d="M479.071,215.324c-23.515,0-47.029,0.015-70.543-0.009c-6.32-0.007-12.643-0.169-18.888-1.248
		c-2.826-0.489-5.663-1.069-8.393-1.933c-8.704-2.752-14.683-8.466-17.976-17c-1.8-4.664-2.798-9.52-3.206-14.464
		c-0.414-5.015-0.67-10.057-0.679-15.088c-0.055-35.672-0.029-71.344-0.029-107.016c0-7.848,0.289-15.67,2.062-23.36
		c0.198-0.856,0.394-1.714,0.631-2.56c3.545-12.661,12.065-19.717,24.802-22.074c6.792-1.257,13.646-1.642,20.531-1.644
		c47.829-0.008,95.658-0.01,143.487,0.002c7.607,0.002,15.188,0.37,22.635,2.114c1.32,0.309,2.637,0.663,3.919,1.102
		c9.397,3.214,15.434,9.65,18.251,19.142c1.949,6.569,2.476,13.344,2.803,20.138c0.127,2.634,0.097,5.277,0.098,7.916
		c0.005,35.192-0.004,70.384,0.009,105.576c0.003,8.089-0.28,16.15-1.936,24.102c-0.31,1.484-0.67,2.965-1.125,4.41
		c-3.413,10.842-10.937,17.146-21.838,19.696c-7.763,1.816-15.667,2.173-23.59,2.185
		C526.421,215.347,502.746,215.324,479.071,215.324z M393.994,37.062c-0.52,3.206-0.379,147.56,0.13,149.308
		c56.724,0,113.468,0,170.189,0c0.458-3.269,0.306-147.533-0.157-149.308C507.494,37.062,450.81,37.062,393.994,37.062z"/>
	<path fill-rule="evenodd" d="M879.349,66.932c0-10.238,0-19.969,0-29.823c-48.64,0-97.083,0-145.523,0
		c-0.486,1.682-0.644,53.845-0.134,57.465c0.881,0,1.817,0,2.752,0c42.315,0.001,84.63,0,126.946,0.001
		c7.855,0,15.665,0.48,23.323,2.386c1.547,0.385,3.074,0.878,4.57,1.428c7.989,2.933,13.431,8.427,16.407,16.392
		c2.007,5.371,2.96,10.979,3.272,16.648c0.873,15.822,0.879,31.66-0.028,47.48c-0.232,4.046-0.955,8.107-1.879,12.063
		c-2.801,11.993-10.405,19.292-22.344,22.129c-7.441,1.769-15.028,2.197-22.631,2.205c-40.556,0.039-81.111,0.035-121.667,0.002
		c-6.881-0.006-13.74-0.433-20.528-1.723c-13.403-2.549-21.803-10.318-24.976-23.664c-2.258-9.499-2.427-19.144-2.285-29.032
		c10.607-2.517,21.136-5.015,31.974-7.585c0,11.206,0,22.05,0,33.057c51.302,0,102.365,0,153.519,0c0-20.591,0-41.023,0-61.733
		c-1.162,0-2.181,0-3.2,0c-41.355,0-82.711,0.01-124.066-0.01c-7.762-0.003-15.518-0.214-23.167-1.744
		c-1.565-0.313-3.125-0.683-4.654-1.136c-8.973-2.657-15.073-8.421-18.424-17.134c-1.91-4.966-2.92-10.146-3.355-15.414
		c-1.103-13.335-0.673-26.698-0.385-40.049c0.114-5.271,0.929-10.5,2.242-15.638c3.318-12.984,11.544-20.601,24.744-22.952
		c6.801-1.211,13.651-1.618,20.536-1.62c36.876-0.009,73.752-0.01,110.628,0.001c7.128,0.002,14.216,0.456,21.229,1.877
		c13.292,2.692,21.444,10.685,24.721,23.765c1.96,7.824,2.264,15.788,2.061,23.944C899.225,61.296,889.49,64.056,879.349,66.932z"/>
	<path fill-rule="evenodd" d="M1818.152,51.545c0.185,2.037,0.471,4.071,0.535,6.112c0.247,7.833,0.588,15.667,0.598,23.502
		c0.056,44.718,0.027,89.437,0.027,134.154c0,0.942-0.001,1.886-0.001,2.96c-9.778,0-19.338,0-29.05,0c0-68.727,0-137.397,0-206.284
		c0.932,0,1.715,0,2.499,0c7.68,0,15.359,0.052,23.038-0.041c1.697-0.021,2.745,0.491,3.766,1.861
		c22.601,30.338,45.25,60.64,67.891,90.948c9.765,13.071,19.53,26.143,29.299,39.211c0.518,0.692,1.063,1.363,1.792,2.297
		c0.677-0.914,1.245-1.645,1.774-2.403c29.482-42.328,58.959-84.66,88.446-126.984c1.138-1.633,2.063-3.772,3.651-4.627
		c1.498-0.808,3.742-0.255,5.658-0.258c7.6-0.011,15.199-0.004,22.799-0.004c0.867,0,1.734,0,2.763,0c0,68.853,0,137.513,0,206.298
		c-10.457,0-20.815,0-31.329,0c-0.052-0.77-0.138-1.463-0.138-2.157c-0.005-45.759-0.063-91.517,0.056-137.274
		c0.021-8.147,0.778-16.293,1.197-24.438c0.069-1.341,0.147-2.68-0.132-4.146c-0.312,0.494-0.679,0.963-0.927,1.486
		c-4.022,8.472-8.84,16.451-14.17,24.178c-24.75,35.876-49.383,71.833-73.997,107.802c-1.175,1.717-2.358,2.586-4.468,2.341
		c-1.968-0.228-4.245,0.383-5.875-0.417c-1.541-0.756-2.449-2.844-3.582-4.385c-25.864-35.186-51.727-70.372-77.571-105.572
		c-2.177-2.964-4.216-6.028-6.339-9.032c-2.973-4.206-5.268-8.763-7.104-13.562c-0.216-0.562-0.451-1.115-0.677-1.673
		C1818.439,51.473,1818.296,51.509,1818.152,51.545z"/>
	<path fill-rule="evenodd" d="M1239.583,215.172c-1.135,0.064-1.904,0.146-2.673,0.146c-10.958,0.009-21.917-0.035-32.874,0.047
		c-1.772,0.014-2.686-0.579-3.487-2.137c-7.933-15.424-15.943-30.81-23.932-46.205c-0.405-0.779-0.82-1.553-1.352-2.558
		c-0.803,0-1.668,0-2.533,0c-44.872,0-89.743,0.013-134.615-0.046c-1.877-0.002-2.813,0.585-3.661,2.236
		c-7.961,15.5-16.039,30.94-24.004,46.438c-0.837,1.629-1.729,2.305-3.642,2.282c-9.597-0.114-19.196-0.05-28.794-0.058
		c-0.772-0.001-1.544-0.074-2.583-0.128c0.458-0.939,0.766-1.645,1.134-2.317c36.759-67.273,73.528-134.542,110.253-201.834
		c0.871-1.596,1.774-2.272,3.682-2.252c10.557,0.11,21.116,0.111,31.673,0.002c2.047-0.021,3.085,0.649,4.071,2.426
		c32.046,57.733,64.153,115.433,96.251,173.137c5.247,9.432,10.494,18.862,15.738,28.294
		C1238.646,213.387,1239.032,214.14,1239.583,215.172z M1161.195,137.876c-18.55-35.228-36.941-70.153-55.526-105.447
		c-18.619,35.361-36.996,70.264-55.52,105.447C1087.244,137.876,1123.979,137.876,1161.195,137.876z"/>
	<path fill-rule="evenodd" d="M1340.709,215.188c-11.388,0-22.633,0-34.021,0c0-68.721,0-137.307-0.001-205.893
		c1.613-0.553,30.075-0.764,33.874-0.251C1341.07,10.675,1341.251,211.723,1340.709,215.188z"/>
	<path fill-rule="evenodd" d="M1519.529,91.484c-4.554,0-9.108,0.01-13.662-0.008c-0.955-0.004-1.918-0.052-2.864-0.179
		c-3.444-0.462-4.746-1.706-5.285-5.144c-0.197-1.258-0.269-2.547-0.269-3.821c-0.001-8.866,0.008-17.732,0.082-26.598
		c0.012-1.339,0.301-2.696,0.614-4.008c0.422-1.765,1.521-3.021,3.361-3.348c2.035-0.361,4.095-0.783,6.147-0.808
		c7.908-0.093,15.819-0.087,23.728-0.002c1.977,0.021,3.961,0.4,5.918,0.751c1.911,0.342,3.168,1.564,3.526,3.471
		c0.367,1.953,0.735,3.941,0.756,5.918c0.084,8.068,0.085,16.139-0.001,24.207c-0.021,1.976-0.41,3.961-0.765,5.917
		c-0.283,1.563-1.362,2.598-2.9,2.836c-2.438,0.377-4.901,0.694-7.363,0.781C1526.883,91.579,1523.204,91.484,1519.529,91.484z"/>
	<path fill-rule="evenodd" d="M1665.916,91.484c-4.555,0-9.108,0.01-13.662-0.008c-0.955-0.005-1.918-0.053-2.864-0.181
		c-3.438-0.464-4.737-1.713-5.273-5.155c-0.196-1.258-0.269-2.547-0.269-3.821c0.001-8.866,0.01-17.732,0.086-26.598
		c0.011-1.339,0.302-2.695,0.616-4.008c0.423-1.766,1.533-3.007,3.37-3.34c1.956-0.354,3.936-0.778,5.909-0.801
		c8.067-0.089,16.139-0.084,24.206-0.001c1.896,0.02,3.801,0.406,5.678,0.752c1.912,0.352,3.168,1.574,3.516,3.48
		c0.37,2.033,0.732,4.102,0.756,6.159c0.086,7.828,0.083,15.659,0.001,23.487c-0.021,2.059-0.378,4.124-0.71,6.165
		c-0.287,1.766-1.453,2.864-3.206,3.112c-2.364,0.335-4.747,0.646-7.13,0.725C1673.269,91.572,1669.591,91.484,1665.916,91.484z"/>
	<path fill-rule="evenodd" d="M1567.906,91.484c-4.475,0-8.948,0.009-13.422-0.008c-0.956-0.003-1.919-0.038-2.866-0.159
		c-3.588-0.459-4.909-1.724-5.438-5.265c-0.177-1.181-0.241-2.389-0.241-3.584c-0.004-8.865-0.004-17.731,0.063-26.597
		c0.01-1.341,0.293-2.696,0.587-4.014c0.417-1.869,1.562-3.167,3.496-3.511c1.957-0.349,3.938-0.755,5.913-0.776
		c7.988-0.087,15.979-0.074,23.967-0.006c1.823,0.015,3.658,0.311,5.46,0.632c2.171,0.388,3.62,1.693,3.978,3.924
		c0.315,1.964,0.646,3.951,0.666,5.932c0.075,7.829,0.081,15.659-0.004,23.488c-0.021,2.058-0.393,4.122-0.732,6.161
		c-0.278,1.663-1.39,2.741-3.036,2.992c-2.36,0.359-4.744,0.678-7.126,0.757C1575.419,91.574,1571.661,91.483,1567.906,91.484z"/>
	<path fill-rule="evenodd" d="M1519.363,185.564c-4.475,0-8.948,0.005-13.422-0.005c-0.798-0.001-1.6-0.014-2.392-0.102
		c-4.146-0.459-5.6-1.886-5.92-6.103c-0.212-2.783-0.258-5.585-0.254-8.379c0.009-7.109,0.051-14.219,0.172-21.326
		c0.023-1.415,0.36-2.848,0.729-4.226c0.395-1.477,1.393-2.55,2.931-2.875c1.789-0.378,3.605-0.851,5.415-0.869
		c8.627-0.089,17.256-0.077,25.883,0.001c1.654,0.015,3.314,0.435,4.952,0.766c1.823,0.37,3.004,1.559,3.345,3.354
		c0.386,2.03,0.757,4.099,0.779,6.154c0.089,7.909,0.07,15.819,0.011,23.728c-0.014,1.826-0.271,3.661-0.549,5.472
		c-0.327,2.117-1.557,3.484-3.756,3.748c-2.215,0.266-4.437,0.571-6.661,0.632C1526.875,185.64,1523.118,185.564,1519.363,185.564z"
		/>
	<path fill-rule="evenodd" d="M1567.961,185.564c-4.554,0-9.107,0.008-13.661-0.007c-0.876-0.003-1.759-0.04-2.627-0.151
		c-3.688-0.469-5.027-1.778-5.52-5.455c-0.159-1.185-0.23-2.39-0.229-3.586c0.005-8.865,0.009-17.732,0.095-26.598
		c0.014-1.415,0.332-2.854,0.694-4.233c0.412-1.564,1.45-2.686,3.091-3.021c1.714-0.351,3.45-0.813,5.181-0.829
		c8.628-0.086,17.257-0.086,25.884-0.005c1.731,0.017,3.471,0.46,5.185,0.81c1.731,0.354,2.869,1.508,3.195,3.2
		c0.407,2.105,0.787,4.255,0.813,6.39c0.095,7.828,0.075,15.659,0.011,23.488c-0.016,1.904-0.292,3.816-0.585,5.705
		c-0.313,2.024-1.509,3.344-3.604,3.604c-2.292,0.284-4.594,0.592-6.897,0.66C1575.314,185.645,1571.637,185.564,1567.961,185.564z"
		/>
	<path fill-rule="evenodd" d="M1665.784,185.564c-4.474,0-8.948,0.007-13.422-0.006c-0.877-0.003-1.76-0.027-2.628-0.132
		c-3.9-0.471-5.263-1.859-5.7-5.811c-0.114-1.03-0.182-2.072-0.181-3.108c0.003-8.866-0.002-17.732,0.074-26.598
		c0.013-1.417,0.319-2.855,0.663-4.241c0.413-1.664,1.485-2.858,3.226-3.182c1.954-0.364,3.933-0.808,5.904-0.831
		c8.148-0.092,16.299-0.094,24.446,0.003c1.971,0.022,3.948,0.481,5.898,0.861c1.639,0.319,2.737,1.444,3.062,3.032
		c0.43,2.101,0.826,4.25,0.853,6.383c0.099,7.908,0.072,15.818,0.015,23.728c-0.014,1.826-0.266,3.662-0.545,5.472
		c-0.325,2.111-1.535,3.499-3.74,3.765c-2.215,0.267-4.437,0.574-6.66,0.636C1673.296,185.64,1669.539,185.564,1665.784,185.564z"/>
	<path fill-rule="evenodd" d="M1519.313,232.124c-4.635,0-9.268,0.023-13.902-0.007c-5.893-0.038-7.735-1.605-7.844-7.446
		c-0.176-9.422-0.075-18.849-0.041-28.272c0.005-1.184,0.281-2.371,0.489-3.546c0.412-2.331,1.893-3.669,4.152-4.051
		c1.883-0.318,3.8-0.583,5.704-0.6c7.749-0.066,15.5-0.072,23.248,0.004c1.981,0.02,3.974,0.332,5.933,0.672
		c2.08,0.361,3.475,1.638,3.835,3.763c0.333,1.96,0.68,3.948,0.699,5.927c0.079,7.908,0.079,15.819,0,23.728
		c-0.021,1.979-0.378,3.964-0.7,5.927c-0.289,1.762-1.426,2.886-3.181,3.139c-2.364,0.342-4.746,0.656-7.129,0.732
		C1526.825,232.212,1523.067,232.124,1519.313,232.124z"/>
	<path fill-rule="evenodd" d="M1568.012,232.124c-4.554,0-9.107,0.01-13.661-0.008c-0.956-0.004-1.918-0.051-2.864-0.178
		c-3.447-0.462-4.748-1.704-5.288-5.141c-0.197-1.258-0.269-2.547-0.269-3.821c-0.001-8.866,0.007-17.732,0.082-26.598
		c0.012-1.34,0.3-2.696,0.613-4.009c0.421-1.764,1.519-3.022,3.359-3.35c2.034-0.361,4.094-0.783,6.147-0.808
		c7.908-0.094,15.818-0.081,23.728-0.006c1.9,0.018,3.813,0.341,5.691,0.676c2.084,0.371,3.464,1.655,3.821,3.777
		c0.33,1.96,0.675,3.948,0.694,5.927c0.078,7.909,0.084,15.819-0.004,23.728c-0.022,2.057-0.409,4.121-0.767,6.157
		c-0.275,1.563-1.358,2.599-2.896,2.838c-2.438,0.377-4.901,0.695-7.363,0.781C1575.365,232.22,1571.688,232.124,1568.012,232.124z"
		/>
	<path fill-rule="evenodd" d="M1617.296,232.124c-4.474,0-8.947,0.007-13.422-0.006c-0.876-0.002-1.759-0.028-2.628-0.133
		c-3.827-0.462-5.186-1.793-5.665-5.579c-0.141-1.106-0.207-2.23-0.207-3.347c0.001-8.866-0.002-17.731,0.074-26.598
		c0.013-1.417,0.32-2.854,0.665-4.24c0.414-1.665,1.492-2.842,3.23-3.18c1.796-0.349,3.613-0.796,5.426-0.813
		c8.467-0.084,16.937-0.083,25.404,0.008c1.811,0.019,3.628,0.477,5.42,0.844c1.636,0.336,2.732,1.453,3.056,3.04
		c0.428,2.101,0.823,4.25,0.85,6.384c0.099,7.908,0.073,15.818,0.015,23.728c-0.014,1.826-0.268,3.661-0.547,5.472
		c-0.325,2.113-1.543,3.493-3.746,3.758c-2.214,0.266-4.436,0.573-6.66,0.635C1624.809,232.2,1621.051,232.124,1617.296,232.124z"/>
	<path fill-rule="evenodd" d="M1665.888,232.124c-4.554,0-9.108,0.008-13.662-0.007c-0.876-0.002-1.759-0.039-2.627-0.149
		c-3.692-0.469-5.03-1.776-5.524-5.451c-0.16-1.185-0.23-2.39-0.23-3.585c0.006-8.866,0.009-17.732,0.095-26.598
		c0.014-1.416,0.331-2.854,0.693-4.234c0.41-1.564,1.447-2.682,3.086-3.026c1.636-0.344,3.291-0.805,4.941-0.82
		c8.787-0.083,17.576-0.083,26.363-0.006c1.651,0.015,3.311,0.457,4.945,0.798c1.729,0.36,2.871,1.506,3.199,3.198
		c0.407,2.105,0.788,4.255,0.814,6.389c0.095,7.829,0.075,15.659,0.011,23.488c-0.016,1.904-0.291,3.817-0.583,5.706
		c-0.313,2.022-1.504,3.348-3.601,3.607c-2.292,0.285-4.593,0.593-6.896,0.661C1673.24,232.204,1669.563,232.124,1665.888,232.124z"
		/>
	<path fill-rule="evenodd" d="M1617.39,91.484c-4.554,0-9.108,0.008-13.662-0.007c-0.876-0.003-1.758-0.042-2.626-0.152
		c-3.683-0.471-5.02-1.784-5.51-5.466c-0.157-1.186-0.23-2.39-0.229-3.586c0.006-8.865,0.022-17.732,0.089-26.598
		c0.01-1.183,0.287-2.37,0.504-3.544c0.41-2.22,1.813-3.539,3.979-3.932c1.802-0.325,3.637-0.62,5.46-0.636
		c7.988-0.067,15.979-0.062,23.968-0.003c1.745,0.013,3.502,0.274,5.229,0.563c2.358,0.393,3.936,1.749,4.313,4.184
		c0.292,1.888,0.59,3.799,0.606,5.702c0.067,7.829,0.066,15.659,0.001,23.487c-0.016,1.904-0.295,3.817-0.587,5.705
		c-0.315,2.028-1.521,3.337-3.613,3.596c-2.292,0.283-4.594,0.589-6.897,0.657C1624.742,91.563,1621.064,91.484,1617.39,91.484z"/>
	<path fill-rule="evenodd" d="M1470.789,91.484c-4.554,0-9.108,0.019-13.662-0.013c-1.193-0.009-2.4-0.082-3.575-0.281
		c-2.663-0.451-3.931-1.662-4.389-4.354c-0.308-1.802-0.481-3.647-0.494-5.476c-0.052-7.75-0.054-15.5,0.002-23.249
		c0.013-1.827,0.24-3.663,0.505-5.476c0.38-2.597,1.949-4.151,4.541-4.546c1.732-0.264,3.487-0.519,5.234-0.531
		c7.909-0.056,15.82-0.08,23.729,0.016c2.053,0.024,4.112,0.452,6.145,0.828c1.73,0.32,2.834,1.496,3.225,3.18
		c0.359,1.546,0.716,3.138,0.729,4.711c0.069,8.947,0.06,17.896,0.013,26.844c-0.008,1.424-0.268,2.86-0.542,4.266
		c-0.352,1.805-1.414,3.073-3.305,3.33c-2.366,0.323-4.747,0.643-7.13,0.72C1478.143,91.571,1474.464,91.483,1470.789,91.484z"/>
	<path fill-rule="evenodd" d="M1470.757,185.564c-4.634,0-9.268,0.018-13.901-0.005c-6.097-0.028-7.976-1.641-8.095-7.756
		c-0.18-9.264-0.179-18.536-0.011-27.8c0.112-6.164,1.693-7.631,7.841-8.271c0.951-0.1,1.914-0.112,2.872-0.113
		c7.51-0.01,15.02-0.036,22.529,0.017c1.828,0.013,3.672,0.195,5.479,0.483c3.137,0.5,4.281,1.617,4.884,4.73
		c0.286,1.48,0.456,3.007,0.464,4.514c0.043,8.309,0.054,16.618-0.006,24.927c-0.012,1.743-0.271,3.5-0.578,5.222
		c-0.323,1.813-1.435,3.057-3.322,3.309c-2.367,0.316-4.748,0.636-7.131,0.713C1478.11,185.651,1474.433,185.564,1470.757,185.564z"
		/>
	<path fill-rule="evenodd" d="M1470.805,232.124c-4.634,0-9.269,0.025-13.902-0.016c-1.271-0.012-2.561-0.117-3.807-0.361
		c-2.07-0.404-3.439-1.688-3.846-3.784c-0.286-1.484-0.532-3.004-0.541-4.51c-0.051-8.707-0.057-17.416,0.004-26.124
		c0.011-1.581,0.305-3.179,0.638-4.732c0.419-1.957,1.635-3.303,3.663-3.659c1.881-0.331,3.785-0.709,5.683-0.728
		c8.069-0.079,16.14-0.093,24.208,0.009c2.049,0.025,4.108,0.484,6.133,0.893c1.524,0.308,2.546,1.369,2.923,2.873
		c0.366,1.463,0.785,2.967,0.797,4.455c0.07,9.346,0.042,18.693,0.017,28.041c-0.003,0.869-0.166,1.748-0.335,2.606
		c-0.63,3.208-1.385,4.035-4.644,4.563c-1.963,0.317-3.974,0.417-5.965,0.455C1478.155,232.173,1474.479,232.124,1470.805,232.124z"
		/>
	<path fill-rule="evenodd" d="M1497.522,116.396c0-4.712-0.141-9.429,0.036-14.134c0.219-5.828,1.85-7.575,7.745-7.702
		c9.42-0.204,18.847-0.068,28.271-0.049c0.87,0.002,1.752,0.146,2.607,0.326c3.438,0.726,4.578,1.914,5.059,5.423
		c0.227,1.657,0.354,3.341,0.362,5.014c0.038,7.509,0.058,15.019-0.01,22.528c-0.02,2.064-0.298,4.135-0.583,6.186
		c-0.303,2.173-1.705,3.388-3.825,3.694c-1.813,0.263-3.646,0.53-5.472,0.542c-8.947,0.056-17.896,0.026-26.844,0.026
		c-0.319,0-0.639,0.001-0.958-0.016c-4.152-0.223-5.983-1.847-6.26-6.031c-0.258-3.9-0.213-7.821-0.285-11.733
		c-0.025-1.357-0.005-2.716-0.005-4.074C1497.416,116.396,1497.469,116.396,1497.522,116.396z"/>
	<path fill-rule="evenodd" d="M1567.249,138.252c-4.314,0-8.628,0-12.942-0.001c-0.639,0-1.279,0.016-1.917-0.018
		c-4.151-0.218-5.865-1.854-6.288-6.029c-0.112-1.111-0.197-2.231-0.195-3.349c0.008-8.706,0.016-17.412,0.09-26.117
		c0.012-1.342,0.298-2.693,0.575-4.016c0.416-1.991,1.673-3.293,3.677-3.634c2.037-0.348,4.108-0.669,6.168-0.69
		c7.669-0.08,15.34-0.078,23.008-0.001c2.061,0.021,4.132,0.332,6.173,0.668c1.992,0.327,3.355,1.555,3.72,3.573
		c0.366,2.033,0.725,4.102,0.748,6.158c0.086,7.828,0.072,15.658,0.008,23.486c-0.016,1.904-0.305,3.815-0.58,5.707
		c-0.316,2.172-1.709,3.396-3.829,3.69c-1.973,0.272-3.965,0.507-5.952,0.546C1575.559,138.309,1571.403,138.251,1567.249,138.252z"
		/>
	<path fill-rule="evenodd" d="M1616.59,138.252c-4.314,0-8.628,0.001-12.942-0.001c-0.639,0-1.279,0.016-1.917-0.022
		c-4.033-0.24-5.729-1.847-6.176-5.885c-0.114-1.03-0.185-2.072-0.184-3.108c0.004-8.866,0.008-17.731,0.072-26.597
		c0.009-1.262,0.285-2.532,0.532-3.78c0.415-2.094,1.699-3.441,3.808-3.795c1.962-0.328,3.952-0.646,5.933-0.665
		c7.828-0.074,15.658-0.066,23.487-0.002c1.823,0.015,3.649,0.325,5.463,0.578c2.443,0.342,3.869,1.838,4.259,4.217
		c0.309,1.885,0.571,3.8,0.587,5.704c0.065,7.749,0.068,15.499-0.001,23.247c-0.018,1.983-0.326,3.972-0.61,5.941
		c-0.299,2.078-1.64,3.268-3.66,3.566c-1.969,0.291-3.962,0.534-5.948,0.574C1625.06,138.311,1620.824,138.251,1616.59,138.252z"/>
	<path fill-rule="evenodd" d="M1665.372,138.252c-4.394,0-8.788,0-13.182-0.001c-0.64,0-1.279,0.016-1.917-0.02
		c-4.055-0.223-5.773-1.817-6.231-5.825c-0.127-1.109-0.201-2.231-0.2-3.348c0.011-8.865,0.02-17.731,0.1-26.596
		c0.012-1.339,0.308-2.694,0.621-4.007c0.425-1.783,1.611-3.002,3.408-3.315c2.192-0.382,4.424-0.714,6.643-0.74
		c7.508-0.09,15.02-0.084,22.528-0.003c2.14,0.023,4.292,0.331,6.41,0.678c1.995,0.327,3.338,1.582,3.694,3.599
		c0.36,2.035,0.716,4.103,0.738,6.159c0.085,7.828,0.063,15.658,0.014,23.487c-0.012,1.749-0.227,3.507-0.467,5.244
		c-0.335,2.427-1.74,3.894-4.219,4.174c-1.9,0.214-3.809,0.455-5.718,0.49C1673.521,138.303,1669.446,138.252,1665.372,138.252z"/>
	<path fill-rule="evenodd" d="M1470.041,138.251c-4.475,0.001-8.948,0.005-13.422-0.003c-0.798-0.002-1.605,0.009-2.392-0.101
		c-3.286-0.458-4.644-1.726-5.144-5.011c-0.275-1.809-0.409-3.653-0.42-5.482c-0.046-7.431-0.055-14.86,0.005-22.29
		c0.016-1.986,0.223-3.985,0.52-5.952c0.369-2.453,1.755-4.097,4.326-4.438c1.974-0.262,3.96-0.564,5.943-0.582
		c7.51-0.067,15.021-0.076,22.529,0.004c2.141,0.022,4.291,0.339,6.413,0.668c2.128,0.33,3.41,1.738,3.811,3.798
		c0.334,1.715,0.588,3.476,0.601,5.218c0.062,8.309,0.056,16.618,0.004,24.927c-0.011,1.665-0.27,3.337-0.52,4.989
		c-0.311,2.052-1.575,3.316-3.606,3.63c-1.968,0.304-3.96,0.556-5.946,0.598C1478.511,138.313,1474.275,138.251,1470.041,138.251z"
		/>
</g>
</svg>
